<svg width="106" height="49" viewBox="0 0 106 49" fill="none" xmlns="http://www.w3.org/2000/svg">
<path d="M104.56 22.6309C100.41 22.1471 96.6535 25.1198 96.1696 29.2703C95.7008 33.2909 98.4749 36.9427 102.422 37.6071L102.808 37.6619L101.6 48.0253L0.285862 36.2125L1.49419 25.8491C5.64468 26.3331 9.40203 23.3604 9.88596 19.2099C10.3548 15.1892 7.57986 11.5373 3.63264 10.873L3.24675 10.8182L4.45508 0.454773L105.769 12.2676L104.56 22.6309Z" fill="#BF953D"/>
<path d="M24.9627 15.7242L23.1886 15.7429L23.1939 15.4214L26.843 15.3475L28.1303 15.4976L26.848 26.4951L28.0876 26.6396L28.0524 26.9416L22.0451 26.2411L22.0803 25.9392L23.749 26.1337L24.9627 15.7242ZM33.775 23.8394C33.8924 22.8329 33.8845 22.1179 33.7513 21.6942C33.6287 21.2719 33.2602 21.0249 32.6457 20.9532C32.0312 20.8816 31.3318 21.0309 30.5477 21.4013L30.2923 21.2426L30.8834 16.173L31.16 16.0119C31.7951 16.1826 32.7616 16.4134 34.0593 16.7043C35.3582 16.9847 36.1083 17.1365 36.3096 17.16C36.5215 17.1847 36.6754 17.1543 36.7713 17.0689C36.879 16.974 36.9789 16.8085 37.0708 16.5722L37.3055 16.6318C36.9576 18.2343 36.6386 19.1743 36.3485 19.4519C36.1922 19.5948 36.0081 19.6539 35.7962 19.6292C35.5843 19.6045 35.1498 19.4625 34.4928 19.2034L31.1339 17.8935L30.6949 20.9674C31.5165 20.6444 32.3405 20.531 33.1669 20.6274C33.9933 20.7237 34.6709 20.8994 35.1996 21.1543C35.7295 21.3987 36.1237 21.7024 36.382 22.0654C36.8707 22.756 37.0631 23.5463 36.9593 24.4362C36.8272 25.5699 36.3149 26.4176 35.4225 26.9793C34.5419 27.5318 33.3918 27.7252 31.9721 27.5597C31.2092 27.4707 30.5232 27.2296 29.914 26.8364C29.5853 26.6156 29.3289 26.3279 29.1447 25.9735C28.9723 25.6098 28.9115 25.2107 28.9621 24.7763C29.014 24.3314 29.1785 23.98 29.4555 23.7224C29.7431 23.466 30.1042 23.3631 30.5386 23.4137C30.9835 23.4656 31.3149 23.617 31.5326 23.8679C31.7622 24.1095 31.8566 24.4051 31.8158 24.7547C31.7763 25.0937 31.6947 25.3795 31.5709 25.6121L31.0465 25.5509C30.9631 25.713 30.9079 25.9106 30.8807 26.1437C30.8547 26.3662 30.9195 26.5939 31.0749 26.8268C31.2315 27.0491 31.4847 27.1807 31.8343 27.2214C32.1839 27.2622 32.455 27.2401 32.6474 27.1551C32.8411 27.0596 32.9949 26.9379 33.1088 26.7901C33.2227 26.6423 33.3259 26.402 33.4184 26.0691C33.5388 25.5892 33.6577 24.8459 33.775 23.8394ZM46.0056 29.1959C45.1792 29.0996 44.556 28.7799 44.1361 28.2369C43.728 27.6846 43.569 27.0218 43.6592 26.2483C43.7506 25.4643 44.0808 24.8424 44.6499 24.3825C45.219 23.9227 45.9221 23.7415 46.7591 23.8391C47.6066 23.938 48.237 24.2423 48.65 24.7523C49.0737 25.2634 49.2361 25.9428 49.1373 26.7904C49.0397 27.6274 48.7023 28.2646 48.1251 28.702C47.5491 29.1289 46.8426 29.2935 46.0056 29.1959ZM45.9205 24.6756C45.8485 24.925 45.7942 25.1603 45.7577 25.3815C45.7212 25.6028 45.6739 25.9624 45.6158 26.4604C45.5577 26.9583 45.5216 27.3139 45.5075 27.527C45.4934 27.7401 45.4927 27.9763 45.5055 28.2355C45.53 28.4854 45.5897 28.6642 45.6846 28.7719C45.7912 28.8702 45.9399 28.9305 46.1306 28.9528C46.3213 28.975 46.4752 28.9446 46.5923 28.8616C46.7199 28.7798 46.8204 28.609 46.8937 28.3491C47.0029 27.9645 47.0946 27.4543 47.1688 26.8186C47.2429 26.1829 47.2876 25.7532 47.303 25.5295C47.3195 25.2952 47.3155 25.0531 47.291 24.8032C47.277 24.5546 47.222 24.3817 47.1259 24.2846C47.0311 24.1769 46.8883 24.1119 46.6976 24.0897C46.5069 24.0675 46.3477 24.0972 46.2201 24.179C46.1042 24.2514 46.0044 24.4169 45.9205 24.6756ZM39.4765 28.2736L47.4643 17.929L48.1 18.0031L40.1281 28.3495L39.4765 28.2736ZM40.851 22.4254C40.0246 22.329 39.4015 22.0094 38.9815 21.4664C38.5734 20.9141 38.4144 20.2512 38.5046 19.4778C38.596 18.6938 38.9263 18.0719 39.4954 17.612C40.0644 17.1521 40.7675 16.971 41.6045 17.0686C42.4521 17.1674 43.0824 17.4718 43.4954 17.9817C43.9191 18.4929 44.0815 19.1723 43.9827 20.0199C43.8851 20.8569 43.5477 21.4941 42.9705 21.9315C42.3945 22.3584 41.688 22.523 40.851 22.4254ZM40.766 17.9051C40.6939 18.1545 40.6396 18.3898 40.6031 18.611C40.5666 18.8323 40.5193 19.1919 40.4612 19.6898C40.4032 20.1878 40.3671 20.5433 40.353 20.7565C40.3388 20.9696 40.3382 21.2058 40.3509 21.465C40.3754 21.7149 40.4351 21.8937 40.53 22.0014C40.6366 22.0997 40.7853 22.16 40.976 22.1822C41.1667 22.2045 41.3206 22.1741 41.4377 22.0911C41.5654 22.0093 41.6658 21.8385 41.7391 21.5785C41.8496 21.1833 41.9413 20.6732 42.0142 20.0481C42.0883 19.4124 42.133 18.9827 42.1484 18.759C42.165 18.5246 42.161 18.2826 42.1364 18.0327C42.1224 17.7841 42.0674 17.6112 41.9714 17.5141C41.8765 17.4064 41.7338 17.3414 41.543 17.3192C41.3523 17.2969 41.1932 17.3267 41.0655 17.4085C40.9497 17.4809 40.8498 17.6464 40.766 17.9051ZM60.618 25.7611L60.7551 24.585C60.9812 22.6462 61.0285 21.4114 60.8971 20.8806C60.7531 20.2731 60.4932 19.8777 60.1172 19.6943C59.9046 19.5836 59.6394 19.5097 59.3215 19.4726C59.0037 19.4356 58.7233 19.4458 58.4803 19.5034C58.2479 19.5622 58.0452 19.6889 57.8722 19.8835C57.6992 20.0781 57.5514 20.2864 57.4288 20.5084C57.3169 20.7316 57.2097 21.052 57.1074 21.4696C56.9721 22.0767 56.8347 22.9789 56.6951 24.1761L56.5617 25.3204C56.411 26.6129 56.3512 27.5402 56.3823 28.1023C56.4253 28.655 56.5073 29.0565 56.6285 29.3069C56.8964 29.8644 57.3747 30.1832 58.0634 30.2635C58.9003 30.3611 59.4815 30.0745 59.8067 29.4036C60.1437 28.7234 60.4141 27.5092 60.618 25.7611ZM57.9927 30.5936C56.2233 30.3873 54.9545 29.7561 54.1863 28.7C53.43 27.6346 53.1574 26.196 53.3686 24.3843C53.5811 22.5619 54.2141 21.186 55.2675 20.2564C56.3327 19.3174 57.7235 18.948 59.4399 19.1481C61.1563 19.3483 62.3908 19.9969 63.1435 21.0942C63.9079 22.182 64.184 23.6371 63.9715 25.4594C63.759 27.2817 63.1491 28.6443 62.1418 29.547C61.145 30.451 59.762 30.7999 57.9927 30.5936ZM65.6024 20.0439L73.8664 21.0074L73.6399 24.3316L73.3538 24.2982C73.0952 23.1082 72.7305 22.2764 72.2595 21.8027C71.7991 21.3302 71.0604 21.0346 70.0433 20.916L69.5983 20.8642L68.9961 26.0292L69.7112 26.1125C70.2198 26.1718 70.6652 26.0358 71.0474 25.7046C71.4297 25.3733 71.7221 24.8919 71.9246 24.2604L72.163 24.2882L71.6145 28.9923L71.3443 28.9608C71.2675 28.1465 71.0952 27.5518 70.8274 27.177C70.5703 26.8034 70.1822 26.5863 69.663 26.5257L68.9479 26.4424L68.3827 31.2895L70.3534 31.5193L70.3126 31.8689L64.3053 31.1685L64.3461 30.8189L65.2837 30.9282L66.4993 20.5028L65.5616 20.3935L65.6024 20.0439ZM75.0074 21.1405L83.2714 22.104L83.0449 25.4281L82.7589 25.3948C82.5003 24.2048 82.1355 23.373 81.6645 22.8993C81.2041 22.4268 80.4654 22.1312 79.4483 22.0126L79.0033 21.9607L78.4011 27.1258L79.1162 27.2091C79.6248 27.2684 80.0702 27.1324 80.4525 26.8011C80.8348 26.4699 81.1271 25.9885 81.3296 25.357L81.568 25.3848L81.0195 30.0889L80.7494 30.0574C80.6725 29.2431 80.5002 28.6484 80.2325 28.2736C79.9754 27.8999 79.5872 27.6829 79.0681 27.6223L78.3529 27.539L77.7878 32.3861L79.7584 32.6159L79.7176 32.9655L73.7103 32.2651L73.7511 31.9155L74.6887 32.0248L75.9043 21.5994L74.9667 21.4901L75.0074 21.1405Z" fill="white"/>
</svg>
